<svg xmlns="http://www.w3.org/2000/svg" width="78" height="78" viewBox="0 0 78 78">
  <metadata><?xpacket begin="﻿" id="W5M0MpCehiHzreSzNTczkc9d"?>
<x:xmpmeta xmlns:x="adobe:ns:meta/" x:xmptk="Adobe XMP Core 5.6-c138 79.159824, 2016/09/14-01:09:01        ">
   <rdf:RDF xmlns:rdf="http://www.w3.org/1999/02/22-rdf-syntax-ns#">
      <rdf:Description rdf:about=""/>
   </rdf:RDF>
</x:xmpmeta>
                                                                                                    
                                                                                                    
                                                                                                    
                                                                                                    
                                                                                                    
                                                                                                    
                                                                                                    
                                                                                                    
                                                                                                    
                                                                                                    
                                                                                                    
                                                                                                    
                                                                                                    
                                                                                                    
                                                                                                    
                                                                                                    
                                                                                                    
                                                                                                    
                                                                                                    
                                                                                                    
                           
<?xpacket end="w"?></metadata>
<defs>
    <style>
      .cls-1 {
        fill: #d8d8d8;
        fill-rule: evenodd;
      }
    </style>
  </defs>
  <path id="load-more-none" class="cls-1" d="M-2,79.994v-82H80v82H-2Zm80-80H0v78H78v-78Zm-10,61H7V59H68v2Zm-52,3v1H11v-1h5Zm7,0v1H22V64h1Zm0-1h1v1H23V63Zm1,3H23V65h1v1ZM38,64v2H37V64h1Zm6,0v1H43V64h1Zm2,0v1H45V64h1Zm5-1h1v1H51V63Zm1,3H51V65h1v1Zm1-2v1H52V64h1Zm11,0v1H59v-1h5ZM7,68H9v0h9v0h2v0h6v0h7v0h0v0h2v0h5v0h2v0h5v0h2v0h6v0h2v0h9v0h2v2H7v-2H7v0Zm59,0V61h2v7h0v0H66ZM7,61H9v7H7V61Zm11,0h2v7H18V61Zm8,0h7v7H26V61ZM30,66h1V63H30v3Zm3-5h2v7H33V61Zm7,0h2v7H40V61Zm7,0h2v7H47V61Zm8,0h2v7H55V61Zm-2-12H72v2H53v-2Zm0-6h0v-10h0v-2H72v2h0v10h0v2H53v-2Zm2,0H70V42.066h0V33.922h0V32.995H55v10h0Zm6.733-5L62.5,38.458,55,42.994V42.066Zm1.533,0L70,42.066v0.927l-7.5-4.535ZM62.5,37.531L70,32.995v0.927l-6.733,4.072Zm-0.767.464L55,33.922V32.995l7.5,4.536ZM53,24.994H72v2H53v-2Zm0-6H72v2H53v-2Zm17-.927h0V9.922h0V8.995H55v10H53v-10h0v-2H72v2h0v10H70V18.066Zm-8.267-4.072L62.5,14.458,55,18.993h0V18.066Zm1.533,0L70,18.066v0.927h0l-7.5-4.535Zm6.733,5h0Zm-7.5-5.462L70,9V9.922l-6.733,4.072Zm-0.767.464L55,9.922V8.995l7.5,4.536ZM30,50.994v-2H49v2H30Zm0-8h0v-10h0v-2H49v2h0v10h0v2H30v-2Zm2,0H47V42.066h0V33.922h0V32.995H32v10h0Zm6.733-5L39.5,38.458,32,42.994V42.066Zm1.533,0L47,42.066v0.927l-7.5-4.535ZM39.5,37.531L47,32.995v0.927l-6.733,4.072Zm-0.767.464L32,33.922V32.995l7.5,4.536ZM30,26.993v-2H49v2H30Zm0-8h2v0h0v0l0,0H47l0,0h2v0h0v2H30v-2Zm17-.927h0V9.922h0V8.995H32v10H30v0h0v-10h0v-2H49v2h0v10H47V18.066Zm-8.267-4.072L39.5,14.458,32,18.992h0V18.066Zm1.533,0L47,18.066v0.926h0l-7.5-4.534Zm6.733,5v0h0v0h0Zm-7.5-5.461L47,9V9.922l-6.733,4.072Zm-0.767.464L32,9.922V8.995l7.5,4.536ZM7,48.994H26v2H7v-2Zm0-6H7v-10H7v-2H26v2h0v10h0v2H7v-2Zm2,0H24V42.066h0V33.922h0V32.995H9v10H9Zm6.733-5L16.5,38.458,9,42.994V42.066Zm1.533,0L24,42.066v0.927l-7.5-4.535ZM16.5,37.531L24,32.995v0.927l-6.733,4.072Zm-0.767.464L9,33.922V32.995l7.5,4.536ZM7,24.993H26v2H7v-2Zm0-6H26v2H7v-2Zm17-.927h0V9.922h0V8.995H9v10H7v-10H7v-2H26v2h0v10H24V18.066Zm-8.267-4.072L16.5,14.458,9,18.993H9V18.066Zm1.533,0L24,18.066v0.927h0l-7.5-4.535Zm6.733,5h0Zm-7.5-5.462L24,9V9.922l-6.733,4.072Zm-0.767.464L9,9.922V8.995l7.5,4.536Z"/>
</svg>
